<?xml version="1.0" encoding="UTF-8" standalone="no"?>
<svg
   xmlns:dc="http://purl.org/dc/elements/1.1/"
   xmlns:cc="http://creativecommons.org/ns#"
   xmlns:rdf="http://www.w3.org/1999/02/22-rdf-syntax-ns#"
   xmlns:svg="http://www.w3.org/2000/svg"
   xmlns="http://www.w3.org/2000/svg"
   xmlns:sodipodi="http://sodipodi.sourceforge.net/DTD/sodipodi-0.dtd"
   xmlns:inkscape="http://www.inkscape.org/namespaces/inkscape"
   version="1.1"
   id="svg2"
   xml:space="preserve"
   width="2560"
   height="773.33331"
   viewBox="0 0 2560 773.33331"
   sodipodi:docname="onli_brand_logo_principal_negativo.eps"><metadata
     id="metadata8"><rdf:RDF><cc:Work
         rdf:about=""><dc:format>image/svg+xml</dc:format><dc:type
           rdf:resource="http://purl.org/dc/dcmitype/StillImage" /></cc:Work></rdf:RDF></metadata><defs
     id="defs6" /><sodipodi:namedview
     pagecolor="#ffffff"
     bordercolor="#666666"
     borderopacity="1"
     objecttolerance="10"
     gridtolerance="10"
     guidetolerance="10"
     inkscape:pageopacity="0"
     inkscape:pageshadow="2"
     inkscape:window-width="640"
     inkscape:window-height="480"
     id="namedview4" /><g
     id="g10"
     inkscape:groupmode="layer"
     inkscape:label="ink_ext_XXXXXX"
     transform="matrix(1.3333333,0,0,-1.3333333,0,773.33333)"><g
       id="g12"
       transform="scale(0.1)"><path
         d="m 18071.1,3749.87 v 596.27 h 768.9 v -596.27 h -768.9"
         style="fill:#0000f4;fill-opacity:1;fill-rule:nonzero;stroke:none"
         id="path14" /><path
         d="m 18840,1516.05 v 2028.31 h -184.3 c -322.8,0 -584.6,-261.72 -584.6,-584.59 V 1516.05 Z m -2864.5,0 h 1512.8 v 594.36 h -1272.5 c -240,0 -434.5,194.55 -434.5,434.53 v 1801.2 h -739.4 V 2449.62 c 0,-515.6 418,-933.57 933.6,-933.57 z m -2165.2,0 h 648.7 v 2830.09 h -713.9 V 2501.83 L 12241,4346.14 h -782.8 V 1516.05 h 713.9 v 1902.11 z m -2935,1415.04 c 0,942.99 -652.4,1484.11 -1656.26,1484.11 -1003.87,0 -1652.63,-541.12 -1652.63,-1484.11 0,-942.99 648.76,-1484.11 1652.63,-1484.11 1003.86,0 1656.26,541.12 1656.26,1484.11 z m -753.8,0 c 0,-525.21 -344.31,-823.62 -902.46,-823.62 -558.1,0 -902.39,298.41 -902.39,823.62 0,525.21 347.9,823.63 902.39,823.63 558.15,0 902.46,-298.42 902.46,-823.63"
         style="fill:#ffffff;fill-opacity:1;fill-rule:nonzero;stroke:none"
         id="path16" /><path
         d="M 4166.03,2899.99 V 4168.67 H 2897.34 V 2899.99 Z M 2897.34,4168.67 V 5437.36 C 1496.01,5437.36 360,4301.33 360,2899.99 360,1498.65 1496.01,362.641 2897.34,362.641 c 1401.36,0 2537.37,1136.009 2537.37,2537.349 H 4166.03 c 0,-700.67 -568,-1268.68 -1268.69,-1268.68 -700.66,0 -1268.65,568.01 -1268.65,1268.68 0,700.67 567.99,1268.68 1268.65,1268.68 z m 1268.69,0 H 5434.71 V 5437.36 H 4166.03 V 4168.67"
         style="fill:#0000f4;fill-opacity:1;fill-rule:nonzero;stroke:none"
         id="path18" /></g></g></svg>
